<svg width="1080" height="1080" viewBox="0 0 1080 1080" fill="none" xmlns="http://www.w3.org/2000/svg">
<path d="M1063.7 534.708C1063.7 854.188 811.474 1067.18 528.424 1067.18C245.373 1067.18 40.7918 810.54 18.3719 519.888C-4.04804 229.236 130.471 -8.82483 507.405 13.4455C884.339 35.7159 1077.71 274.074 1063.7 534.708Z" fill="url(#paint0_linear_103_280)"/>
<path d="M553.576 376.963C560.873 340.228 613.403 340.228 620.7 376.963V599.042C620.7 625.578 614.428 648.918 601.883 669.061C589.46 689.204 571.97 704.945 549.415 716.283C526.859 727.5 500.504 733.109 470.35 733.109C440.075 733.109 413.66 727.5 391.104 716.283C368.549 704.945 351.059 689.204 338.635 669.061C326.212 648.918 320 625.578 320 599.042V376.963C327.297 340.228 379.827 340.228 387.124 376.963V588.434C387.124 603.873 390.501 617.623 397.256 629.685C404.131 641.747 413.78 651.215 426.204 658.09C438.627 664.845 453.343 668.222 470.35 668.222C487.357 668.222 502.072 664.845 514.496 658.09C527.04 651.215 536.69 641.747 543.444 629.685C550.199 617.623 553.576 603.873 553.576 588.434V376.963Z" fill="white"/>
<path d="M760.782 465.963V705.5C753.381 742.107 701.06 742.107 693.658 705.5V465.963C698.772 426.658 755.668 426.658 760.782 465.963Z" fill="white"/>
<circle cx="727.5" cy="382.5" r="33.5" fill="white"/>
<defs>
<linearGradient id="paint0_linear_103_280" x1="-133.411" y1="-138.048" x2="1446.31" y2="295.627" gradientUnits="userSpaceOnUse">
<stop offset="0.0306109" stop-color="#F546CB"/>
<stop offset="0.503618" stop-color="#7B77F2"/>
<stop offset="0.979995" stop-color="#25CEC4"/>
</linearGradient>
</defs>
</svg>
